<?xml version="1.0" encoding="UTF-8"?>
<svg id="Layer_1" data-name="Layer 1" xmlns="http://www.w3.org/2000/svg" viewBox="0 0 1171 590">
  <defs>
    <style>
      .cls-1 {
        fill: #fff;
      }
    </style>
  </defs>
  <g>
    <path class="cls-1" d="M305.34,544.98c-5.64.62-11.97-1.81-17.24-1.73-9.48.15-17.95-1.38-27.12-2.78-16.13-2.46-31.14-6.52-46.43-11.8l-25.31-10.77-13.13-6.06c-14.65-6.76-28.03-15.08-40.49-25.44-7-5.82-14.19-11.07-20.19-17.71l-8.14-9c-9.73-10.76-17.33-23.02-23.88-36.08l-10.05-20.03c-8.83-17.6-13.21-36.91-16.31-56.54l-.87-13-.97-13.08-.63-14.95c-.3-7.16-.58-13.85.06-20.91l1.63-17.98,10.68.21v26.05c-.01,5.94-.26,12.44.66,18.34,1.15,7.31,4.15,15.22,8.89,20.82,13.82,16.31,33.45,25.14,54.44,28.49,18.29,2.92,36.93,3.29,55.04-.05l16.12-2.98c15.19-2.8,29.41-7.46,43.9-13.14,12.35-4.84,23.61-11.1,35.02-17.87,13.04-7.75,24.47-16.97,35.03-27.93l9.7-10.06c1.66,4.74,1.1,6.71,1.18,10.37.14,6.5.07,12.83-.7,19.54-.66,5.81.84,11.22.84,17.19l.06,206.47-21.8,2.4h.01ZM260.74,413.88l26.45-9.58c9.01-3.26,17.22-7.25,24.73-13.43l.03-63.74-2.39-3.13c-17.24,11.55-35.04,20.82-54.25,29.45-1.92.86-3.18,4.31-3.18,6.47l.15,49.76c0,1.37,1.63,4.43,2.88,4.93s3.93-.13,5.58-.73h0ZM108.61,389.05l-.61-15.1c-.16-3.89-.91-6.66-4.7-8.31-10.98-4.78-21.1-10.69-29.51-19.51-1.31-1.37-3.94-4.75-6.12-2.1-1.54,1.88-.02,6.88.64,9.56,3.47,14.03,6.38,27.54,14.39,39.76l20.8,12.64c.85.52,3.98.15,4.37-.57s1.05-2.56,1.03-3.43l-.3-12.93h.01ZM186.73,423.69c7.87.27,15.8.84,23.1-.12l16.6-2.16c5.46-.71,10.58-1.94,15.5-4.43l-.03-52.07c0-1.14-.57-3.33-1.24-4.01s-2.97-.74-4.06-.43l-34.44,9.88-17.04,3.38c-4.18.83-4.33,18.53-3.31,29.31l1.25,13.19c.2,2.06-.3,7.33,3.68,7.47h0ZM168.54,424.02c1.36.24,3.63-2.8,3.59-4.09l-.51-16.86-.6-17.19c-.12-3.45-.52-8.42-3.08-10.58l-23.78-.56c-8.4-.2-15.76-2.69-24.38-1.09-1.06,7.49-.55,14.19.11,21.3l1.04,11.19c.31,3.31,1.65,7.62,5.16,8.56l10.21,2.72,11.22,2.81,21.03,3.79h-.01ZM274.98,480.05l10.28-2.63,10.21-2.85c5.97-1.67,11.53-3.9,16.49-7.74l-.28-61.56c-18.72,7.69-34.96,14.04-52.81,19.61-3.94,1.23-7.07,3.59-6.64,8.11l-.06,38c0,4.34.5,7.85,1.62,12.11,7.93-.26,14.13-1.24,21.19-3.05h0ZM117.98,441.72l-3.24-10.79c-.82-2.73-1.29-8.93-3.99-10.32l-14.01-7.19c-.82-.42-3.19-.23-3.32.54l-.51,3.05c5.52,10.63,12.21,19.96,20.21,28.93,1.02,2.53,3.93,5.03,6.75,3.64.47-1.83-1.16-5.44-1.88-7.86h-.01ZM181.54,471.08l-6.4-25.46c-.68-2.72-.56-8.6-3.35-10.02l-13.93-2.43-14.91-3.12c-4.58-.96-10.22-2.71-14.59-2.74s-2.92,5.4-2.28,7.51c3.41,11.28,6.58,22.1,13.35,31.7,9.99,4.68,19.68,7.73,30.17,11.08,3.28,1.05,8.28,2.42,11.16.29,1.31-.97,1.22-5.04.78-6.8h0ZM190.81,467.65l3.02,9.7c.96,3.09,2.95,7.48,7.48,7.49l39.41.07c2.76-7.59,1.68-14.55,1.55-22.04l-.54-31.77c-7.4.13-13.64,1.84-20.8,2.88l-6.94,1.01-25.15.04c-6.29,0-3.43,11.27-.96,21.08l2.92,11.55h0ZM258.94,528.45l15.14,1.72c12.6,1.43,37.7,4.5,37.72-2.11l.12-45.09c-3.1-1.65-6.36-.61-9.67.29l-17.31,4.69-22.21,4.94c-3.95.88-10.35,1.27-10.37,7.43l-.04,21.29c0,3.7,2.7,6.38,6.63,6.83h-.01ZM191.77,502.83l-5.96-9.57-26.52-7.12c-.99-.27-3.87,1.58-3.37,2.34l1.87,2.82c9.89,6.03,19.63,11.05,30.29,15.75l3.49-.89c.59-.15.58-2.73.2-3.33h0ZM240.29,496.38l-27.26-.48c-4.25-.07-8.29-2.09-12.52,1.25,2.22,8.01,7.03,17.26,15.24,19.8l24.14,7.46c3.96-7.34,5.61-23.06.39-28.04h0Z"/>
    <path class="cls-1" d="M887.65,381.21l-31.42.32-55.55-96.16-7.75.2-29.41.23v95.59l-27.49-.16-.09-196.11c-.44-6.24-3.26-11.94-4.13-18.52l68.15.1c12.67.02,24.89,2.36,36.36,6.9,21.02,8.33,30.64,25.35,32.3,47.63,1.91,25.67-15.74,50.52-40.98,58.94l60.03,101.02-.02.02ZM840.09,226.55c.64-15.62-6.5-28.29-20.53-34.34-5.86-2.43-12.85-4.76-19.53-4.77l-36.52-.07.03,77.61,35.36-.32c8.3-.07,16.77-3.17,23.92-6.73,12.03-5.98,16.72-17.94,17.26-31.38h.01Z"/>
    <path class="cls-1" d="M208.97,337.37l-10.41,3.08-10.21,3.02c-2.43.72-5.21.91-7.42-.7V127.4c1.34-1.1,3.81-2.47,4.99-2.47h44.12c2.72-.01,5.1,2.12,5.1,5.26v193.64c0,2.65-2.23,5.31-4.3,6.02l-21.87,7.52Z"/>
    <path class="cls-1" d="M467.56,374.77c-32.71,17.91-72.4,11.73-104.57-5.21l10.3-23.81c22.99,18.85,57.96,27.37,81.88,8.53,7.95-6.26,11.58-15.32,11.92-25.2.88-25.33-19.63-37.81-40.74-47.52l-21.77-10.01c-8.16-3.75-14.7-8.89-21-15.08-9.82-9.65-14.93-21.5-14.87-35.55.05-13.04,3.49-25.77,12.82-35.53,28.02-29.31,75.4-25.96,109.93-5.58l-13.43,19.78c-7.01-4.23-13.35-8.15-20.64-10.93-23.21-8.83-53.53-3.56-58.46,20.22-4.58,22.1,9.74,34.17,28.94,43.21,13.59,6.4,26.64,12.82,39.36,20.44,20.12,12.05,30.56,32.13,29.19,55.42-1.19,20.25-10.87,36.98-28.85,46.82h-.01Z"/>
    <path class="cls-1" d="M662.14,362.19c-28.93,31.74-82.89,27.89-120.32,7.37l10.42-23.88c13.55,11.26,28.94,17.68,45.64,19.07,24.35,1.04,47.23-10.33,47.97-35.71.4-13.72-5.6-25.37-16.51-33.45-5.61-4.15-11.36-8.16-17.75-11.07l-24.01-10.94c-22.36-10.19-40.1-26.95-39.95-52.67.08-12.89,3.03-25.32,12.35-35.12,28.16-29.62,74.94-26.53,110.1-6.06l-13.14,20.02c-18.97-12.75-38.63-19.53-60.18-12.05-11.5,3.99-18.59,13.47-19.71,25.4-2.2,23.4,16.91,33.24,36.53,42.33,12.5,5.79,24.14,11.79,35.62,19.32,17.11,11.22,26.61,29.67,26.01,50.29-.4,13.66-3.75,26.92-13.09,37.16h.02Z"/>
    <path class="cls-1" d="M966.89,329.63c16.34,32.62,50.55,41.23,84.08,31.28,10.1-3.03,18.91-7.17,27.37-14.35l12.74,19.46c-23.82,17.39-58.65,22.83-87.48,17.48-45.91-8.52-72.94-49.97-77.25-94.93-3.31-34.57,3.62-68.09,26.85-94.34,29.18-32.98,76.95-37.39,116.78-21.3,7.7,3.78,14.22,7.79,20.66,14.03l-15.53,17.53c-8.28-8.83-18.32-14.05-29.54-16.92-28.54-8.22-59.99.85-74.6,27.35-10.31,18.68-14.98,38.63-15.19,60.01l-.07,7.26c-.16,16.5,3.61,32.31,11.19,47.43h0Z"/>
    <path class="cls-1" d="M1087.79,491.64c-2.27,1.88-5.67-.09-7.27-2.01l-14.57-17.39-.35,19.97-5.35-.12.04-30.07c3.11-1.2,5.39.98,7.31,3.28l13.94,16.71.51-20.16,5.86.17-.12,29.61h0Z"/>
    <path class="cls-1" d="M456.92,489.03c-1.17-2.31-2.58-4.94-4.27-5.64-1.86-.77-6.46-.48-7.89.01l-.09,8.85-5.43-.14v-30.38l15.5.35c5.03.11,8.81,3.99,9.74,8.04,1.12,4.87-.59,9.4-6.11,11.86l6.54,9.74c-2.56,1.53-6.3.63-7.99-2.7h0ZM456.85,477.15c2.56-.97,2.97-7.57.9-8.79-3.82-2.26-8.08-2.4-12.9-2.33l-.22,12.5c4.02.05,7.88.27,12.21-1.37h.01Z"/>
    <path class="cls-1" d="M825.4,490.06c-8.54,4.92-20.09,1.64-24.13-7.18-2.63-5.76-.56-12.26,3.11-16.03,4.41-4.53,10.95-6.15,17.02-4.39s10.23,6.06,11.32,11.47c1.28,6.38-1.09,12.55-7.32,16.14h0ZM822.81,486.07c5.22-3.12,5.9-10.06,2.76-14.89-2.62-4.04-7.94-5.99-13.45-3.8-5.88,2.34-7.87,9.46-5,14.99,2.63,5.06,9.7,7.29,15.69,3.71h0Z"/>
    <path class="cls-1" d="M1039.61,476.75c.11,10.49-9.71,17-19.55,15.37-6.84-1.14-12.06-5.91-13-11.81-1.12-7.03,1.45-13.56,7.76-16.4,5.63-2.53,10.89-3.14,16.58-.07,4.05,2.19,8.14,6.41,8.21,12.91ZM1017.82,486.44c5.73,2.81,11.03,1.22,14.22-3.03,2.65-3.52,2.68-9.86-.46-13.29s-8.41-4.96-13.15-2.6c-3.64,1.81-6.01,5.37-6.29,9.14s2.04,7.98,5.68,9.77h0Z"/>
    <path class="cls-1" d="M934.14,536.26c-1.13.65-4.37.15-5.26-.87l-13.68-15.76-.39,16.17c-.48.99-4.02.97-4.78,0l.19-24.8c1-1.64,4.79.31,5.95,1.67l12.56,14.65.5-16.16c.54-.88,3.94-.87,4.86-.01l.05,25.13v-.02Z"/>
    <path class="cls-1" d="M588.02,478.93l-11.55-.07v8.96l16.16.31c1.31.02,1.61,4.17.24,4.17l-22.07.06-.03-30.59,22.26-.03v4.31l-16.58.11.02,8.08,13.07.12c.85,0,2.24,2.51,1.7,3.11s-2.3,1.46-3.22,1.45h0Z"/>
    <path class="cls-1" d="M1098.97,535.66c-.01,1.54-4.35.73-5.21-.27l-13.57-15.73-.39,16.14c-.47.98-4,.96-4.77,0l.18-24.81c1.05-1.62,4.78.3,5.96,1.68l12.55,14.64.49-16.13c.54-.91,3.93-.9,4.93-.03l-.17,24.52h0Z"/>
    <path class="cls-1" d="M505.58,485.59l-16.23-.27-2.74,6.76h-5.9l12.04-26.42c.65-1.43,1.21-3.14,2.15-3.64s3.72-.2,5.18.09l13.37,29.67c-1.74.49-4.7.79-5.41,0-.86-.94-1.38-2.54-2.46-6.18h0ZM503.07,480.97l-6.03-13.27-5.77,13.26,11.8.02h0Z"/>
    <path class="cls-1" d="M636.03,476.96l5.54.07-.31,11.89c-10.3,6.78-24.7,2.95-27.69-7.23-1.55-5.26-.16-10.08,3.04-14.15,5.86-7.47,18.2-7.08,24.27-1.89.36.76-.76,3.72-1.5,3.47l-3.96-1.31c-5.44-1.8-10.83-1.44-14.15,2.22-3.5,3.86-3.29,10.56,0,14.12,3.64,3.92,9.28,4.91,14.64,2.31l.11-9.5h.01Z"/>
    <path class="cls-1" d="M913.94,462.12l5.13-.23-.12,18.07c-.05,7.98-6.25,12.87-14,12.44-7.05-.39-12.7-5.24-12.77-12.62l-.18-17.87,5.97-.03.13,20.31c.02,3.68,5.33,6.1,8.38,5.81,3.92-.37,7.06-4.19,7.14-8.53l.32-17.35Z"/>
    <path class="cls-1" d="M809.81,536.29l-14.69.37-.09-26.14,15.14.22c7.05.1,11.41,6.46,11.54,12.78s-4.5,12.58-11.9,12.77h0ZM807.95,532.61c5.34.16,8.76-4.46,8.79-9.11s-3.82-8.93-8.92-8.98l-7.78-.07-.12,17.91,8.03.25Z"/>
    <path class="cls-1" d="M375.52,490c-8.43,5.52-24.7.4-19.21-4.18,2.11-1.76,7.05,4.23,14.82,1.29,1.06-.4,2.92-2.46,2.73-3.5-1.1-5.97-20.31-2.82-18.43-13.81.31-1.81,2.4-4.87,4.29-5.98,5.63-3.29,12.68-2.61,17.52.68-.01,1.06-.17,3.88-.81,3.72l-3.13-.77c-6.8-1.68-12.19-.74-12.34,3.04-.04.93,1.54,2.94,2.55,3.21l9.16,2.52c3.1.85,5.72,2.92,6.32,5.51.64,2.77-.68,6.44-3.46,8.26h-.01Z"/>
    <path class="cls-1" d="M778.22,490.54c-7.51,4-19.06.39-19.51-1.99-.19-.98,1.23-3.24,1.86-3.25,7.21,3.39,14.95,3.77,16.47-1.08.39-1.25-1.82-3.34-3.29-3.76l-10.32-2.99c-1.6-.46-3.85-2.94-4.37-4.44-.59-1.68.26-6.01,1.56-7.25,5.84-5.55,14.23-5.23,20.3-.91l-1.12,3.82c-6.73-2.86-14.01-3.29-15.46,1.18-.38,1.19,1.58,3.46,2.79,3.8l10.44,3c2.04.59,4.77,4.04,4.99,6.14.25,2.35-1.76,6.35-4.35,7.73h.01Z"/>
    <path class="cls-1" d="M1125.93,490.54c-6.69,4.03-18.81.43-19.23-1.98-.17-.99,1.24-3.25,1.86-3.26,7.16,3.44,14.98,3.71,16.47-1.09.39-1.25-1.83-3.33-3.21-3.73l-10.32-2.99c-1.91-.55-4.38-3.49-4.66-5.25-.31-1.89.86-5.59,2.33-7.01,5.17-4.99,14.12-4.23,19.09-.79,1.66,8.01-7.09-.89-14.39,3.23-.6.34-1.66,2.15-1.62,2.84.04.86,1.57,2.73,2.54,3.01l9.85,2.86c2.95.85,5.47,3.69,5.69,6.11.29,3.01-1.27,6.17-4.39,8.05h0Z"/>
    <path class="cls-1" d="M484.24,535.98l-5.08-7.35-7.82-.3-.29,8.33-4.17-.02-.03-26.31,14.24.36c4.17.11,7.45,3.62,7.99,6.83.72,4.31-.57,7.92-5.42,9.75l5.75,9.11c-.55.27-4.59.42-5.17-.42v.02ZM481.36,523.84c1.66-.08,3.19-3.91,2.85-5.23s-2.33-3.87-3.77-3.91l-9.24-.22-.04,9.83,10.21-.47h-.01Z"/>
    <path class="cls-1" d="M443.43,536.36c-9.21,2.68-5.12-11.11-17.78-7.71l-.33,7.98-4.35-.6.07-25.68,14.34.26c3.85.07,7.28,3.95,7.87,6.94.89,4.48-1.27,8.27-5.19,9.92l5.39,8.9h-.02ZM434.25,524.21c1.78,0,4.35-2.97,4.39-4.65s-2.38-4.85-4.04-4.88l-9.04-.16-.14,9.67,8.84.03h0Z"/>
    <path class="cls-1" d="M899.44,515.03c4.05,4.21,4.19,10.03,1.79,14.62-2.3,4.41-7.7,6.96-13.19,6.97-6.54,0-12.17-3.26-14.08-9.2-1.75-5.46.67-12.5,6.28-15.1,6.47-3,14.02-2.69,19.21,2.71h-.01ZM890.29,532.47c5.34-.88,8.33-5.94,7.27-10.46s-5.23-8.1-10.28-7.63c-6.09.57-9.67,5.32-8.79,10.85.83,5.24,5.57,8.27,11.8,7.24h0Z"/>
    <path class="cls-1" d="M784.4,535.93c-.63,1.31-4.25.17-5.18-.9l-13.78-15.82-.57,16.84c-.6.2-3.45.35-4.29.27l.05-25.55c1.32-.8,4.12.1,5.09,1.23l13.72,15.98.62-17.04c.67-.15,3.49-.33,4.45-.3l-.11,25.29Z"/>
    <path class="cls-1" d="M411.93,521.65c.93,4.89-1.79,9.5-4.88,11.93-3.45,2.71-8.67,3.6-13.15,2.7-6.17-1.25-10.9-6.23-11.14-11.76-.28-6.49,3.79-11.88,10.37-13.55,7.83-1.99,17.07,1.59,18.8,10.68h0ZM398.29,532.72c6.4-.7,9.37-5.63,8.51-10.94-.78-4.84-5.22-7.92-10.58-7.3s-8.79,4.85-8.45,10.08c.31,4.73,4.73,8.81,10.51,8.17h0Z"/>
    <path class="cls-1" d="M638.97,535.97c-8.9,3.91-5.2-10.95-17.93-7.26l-.17,7.53-4.34.16-.03-25.93c11.1-1,22.77.14,22.51,8.96-.11,3.54-2.26,6.28-5.76,7.98l5.73,8.56h0ZM630,524.07c1.65-.04,3.99-3,4-4.5s-1.97-4.82-3.49-4.86l-9.42-.23-.11,9.82,9.01-.23h0Z"/>
    <path class="cls-1" d="M711.39,485.31c.98-.89,3.72.73,4.64,2.2-6.05,6.66-16.76,6.58-23.84.1s-5.22-18.72,2.92-23.26c7.05-3.93,14.93-3.42,20.9,1.88l-2.07,2.5c-1.49,1.8-10.4-7.21-18.05,1.73-3.46,4.04-3.31,10.25.28,13.97,4.01,4.16,11.06,4.66,15.22.88h0Z"/>
    <path class="cls-1" d="M745.25,531.2l-12.17-.36c-1.13-.03-2.98,1.85-3.44,2.69l-1.66,2.96c-.45.8-3.17-.06-4.29-.81l11.33-24.15c.74-1.57,4.96-1.29,5.74-.53l11.74,25.24c-1.12.28-3.63.67-4.46.18-1-.58-1.56-2.33-2.78-5.24v.02ZM743.23,526.86l-5.4-11.38-5.11,11.52,10.51-.14Z"/>
    <path class="cls-1" d="M602.21,531.2l-12.31-.37c-3.29-.1-3.41,5.62-4.9,5.71-.93.06-2.79-.25-4.17-.56l10.49-22.82c.48-1.04,2.32-2.8,3.41-3.01,1.3-.25,3.54,1.46,4.18,2.83l10.71,23.17c-1.19.38-3.7.85-4.43.24-.87-.74-1.58-2.36-2.98-5.19ZM600.34,526.98l-5.06-11.41-5.45,11.34,10.51.08h0Z"/>
    <path class="cls-1" d="M702.9,535.61c0,1.19-4.49,1.3-4.78.24l-.47-10.25-14.16-.03-.2,10.99-4.38-.56v-25.02l4.39-.58.21,11.08,14.28-.19.32-10.07c.3-1.07,4.27-1.02,4.82.04l-.02,24.35h-.01Z"/>
    <path class="cls-1" d="M989.84,530.08c3.89-9.59-2.96-22.99,6.16-18.9l.1,13.96c.01,2.08-1.34,6.57-2.92,8.11-4.77,4.62-13.38,4.55-18.37-.13-1.33-1.25-2.77-5.18-2.77-7.04l.05-15.06c.84-.62,4.08-.61,4.89.03l.7,17.44c.2,4.91,10.41,5.92,12.16,1.6h0Z"/>
    <path class="cls-1" d="M516.87,525.32l-13.65.35.19,6.82,14.54.11c.89,0,1.09,3.49.34,3.97l-19.62.14-.11-26.3,19.46-.08.18,4.16h-14.93v6.98l11.48-.11,2.12,3.97h0Z"/>
    <path class="cls-1" d="M572.4,525.28l-12.11.37v6.84l14.8.15c.55.33.68,3.19.34,3.94l-19.85.13-.07-26.31,18.36-.04c1.16,0,1.39,3.99.13,4l-13.75.17.08,6.88,11.52.08c.9,0,1.32,3.77.54,3.79h0Z"/>
    <path class="cls-1" d="M1114.73,529.49c4.18,4.72,12.41,3.22,13.32,1.96.58-.81.68-2.97.83-4.37l.45-4.04c.09-.85,3.64.48,3.62,1.34l-.22,9.17c-6.4,4.21-14.16,4.28-20.06-.18-3.34-2.52-5.05-6.17-5.01-9.88s1.71-7.32,5.02-9.87c5.8-4.47,13.97-4.42,20.03.22l-2.65,3.43c-5.7-4.6-13.86-3.77-16.84,2.9-1.22,2.74-.41,7.15,1.5,9.3v.02Z"/>
    <polygon class="cls-1" points="952.99 492.04 947.04 492.12 947.04 466.1 936.9 466.08 936.87 461.74 963.1 461.74 963.1 466.1 952.94 466.08 952.99 492.04"/>
    <polygon class="cls-1" points="544 492.02 538.06 492.13 538.06 466.1 527.98 466.07 528.04 461.76 554.11 461.73 554.09 466.08 543.96 466.08 544 492.02"/>
    <polygon class="cls-1" points="410.99 492.03 405.04 492.13 405.04 466.1 394.9 466.08 394.87 461.74 421.12 461.74 421.06 466.08 410.95 466.08 410.99 492.03"/>
    <path class="cls-1" d="M960.88,534.61c-4.89,3.69-13.51,1.85-17.46-.49-.48-.28-.15-3.12.45-3l2.92.58c6.98,1.38,12.89,1.05,12.44-2.22-.11-.77-1.43-2.45-2.25-2.7l-8.99-2.7c-2.17-.65-4.63-2.96-4.98-4.79-.37-1.92.94-5.42,2.65-6.59,4.89-3.34,11.05-2.71,16.32-.55l-.53,3.88c-6-1.74-11.71-2.72-13.47.66-.37.71.33,3.29,1.09,3.52l9.78,2.82c2.36.68,4.73,2.75,5.15,4.69.46,2.13-.81,5.15-3.12,6.89h0Z"/>
    <path class="cls-1" d="M541.96,535.73c-4.94,1.86-13.47.91-16.24-2.32-.42-.48.98-2.62,1.59-2.44,6.06,1.87,12.43,3.04,14.62-.73.47-.8-.91-3.12-1.84-3.39l-10.09-2.98c-1.68-.49-3.9-2.97-4.19-4.52-.38-2.05.9-5.52,2.78-6.71,4.17-2.62,9.33-2.87,13.74-1.24l2.74,1.01c.57.21,0,2.42-.47,2.81-1.68,1.38-13.57-3.69-13.95,2.4-.06,1,1.5,2.69,2.55,3l9.52,2.83c1.94.58,4.49,4.01,4.19,5.84-.36,2.18-2.16,5.37-4.97,6.43h.02Z"/>
    <path class="cls-1" d="M373.71,522.72c.88.1,1.53,3.19,1.26,4.17l-12.97.15-.14,9.18-4.79.33.03-26.18,18.96-.02c.24.46.47,3.36.36,4.08l-14.25.08-.18,8.24,11.73-.02h0Z"/>
    <path class="cls-1" d="M847.34,519.87c-1.75,4.34-.51,8.76,3.05,11.2,2.75,1.89,7.37,1.94,10.92.41l3.22-1.39c.88-.38,1.88,3.05.85,3.79-4.75,3.36-14.84,4.15-20.05-1.18-4.79-4.9-4.86-12.69-.43-17.79,7.17-8.26,24.36-3.2,20.88,1.18-.37.46-2.24.89-2.8.49-4.06-2.92-12.86-3.55-15.62,3.29h-.02Z"/>
    <path class="cls-1" d="M653.3,529.64c4.12,4.07,10.37,4,15.03.36l2.68,2.77c-7.14,6.44-18.58,4.82-23.44-3.23-4.02-6.67-.18-14.76,6.38-17.72,9.45-4.28,20.43,2.31,15.71,4.56-2.94,1.4-10.01-5.72-16.09.81-2.95,3.17-3.63,9.12-.27,12.44h0Z"/>
    <path class="cls-1" d="M874.22,488.11c1.22.02.95,4.24-.33,4.24h-20.25l-.03-30.48,5.65-.03.05,26.07,14.92.19h0Z"/>
    <path class="cls-1" d="M1043.86,535.57c0,1.26-4.42,1.36-4.74.26l-.13-21.1-9.27-.4.37-3.98,21.63.05c1.21,0,1.49,3.8.43,3.87l-8.13.54-.16,20.78v-.02Z"/>
    <path class="cls-1" d="M1025.14,532.65c1.06.03.94,3.98-.32,3.98l-17.7-.02-.03-25.47c.82-.82,4.05-.84,4.83-.03l.12,21.23,13.11.31h-.01Z"/>
    <polygon class="cls-1" points="667.96 492.02 662.36 492.16 662.36 461.9 667.93 461.9 667.96 492.02"/>
    <polygon class="cls-1" points="986.7 492.03 981.24 492.15 981.24 461.91 986.69 461.88 986.7 492.03"/>
    <path class="cls-1" d="M1064.47,535.71c0,1.03-4.14,1.02-4.44.08l-.05-24.77c.98-.27,3.52-.44,4.5-.34v25.03h-.01Z"/>
  </g>
  <path class="cls-1" d="M318.15,56.22l-53.15-.24-.03,158.43h.02v80.6h-.08l.25,18.57c5.42-1.96,8.17-3.99,11.79-6.73,13.42-10.15,26.31-20.81,36.87-33.94,2.88-3.59,4.45-7.33,4.36-12.05V56.22h-.03Z"/>
  <path class="cls-1" d="M145.08,190.76l-43.86.07v-.09h-3.37v138.78c0,1.51,3.83,4.62,6.27,5.73.56.34,1.12.64,1.69.87l12.65,5.01c9.34,3.69,17.88,5.26,27.63,6.13,1.7.15,4.1-2.46,4.1-4.32v-150.56s-.19-1.89-5.11-1.62h0Z"/>
  <path class="cls-1" d="M101.22,190.83v142.06c-1.8-1.94-3.07-4.46-3.1-7.17-.21-20.21-.57-40.09.32-60.18.41-9.2.86-17.88.04-27.02-.78-8.67-.81-17.63-.19-26.38.33-4.73.78-8.52-.17-13.36-.48-2.45.34-5.71,2.15-7.95h.95Z"/>
</svg>